<?xml version="1.0" standalone="no"?>
<!DOCTYPE svg PUBLIC "-//W3C//DTD SVG 20010904//EN"
 "http://www.w3.org/TR/2001/REC-SVG-20010904/DTD/svg10.dtd">
<svg version="1.0" xmlns="http://www.w3.org/2000/svg"
 width="1024.000000pt" height="1024.000000pt" viewBox="0 0 1024.000000 1024.000000"
 preserveAspectRatio="xMidYMid meet">
<metadata>
Created by potrace 1.14, written by Peter Selinger 2001-2017
</metadata>
<g transform="translate(0.000000,1024.000000) scale(0.100000,-0.100000)"
fill="#000000" stroke="none">
<path d="M0 5120 l0 -5120 5120 0 5120 0 0 5120 0 5120 -5120 0 -5120 0 0
-5120z m5570 4665 c666 -65 1499 -327 2071 -651 148 -84 147 -79 12 -76 -117
2 -223 -13 -230 -33 -1 -6 21 -23 50 -39 75 -41 332 -218 450 -310 246 -191
537 -476 722 -709 36 -45 72 -89 78 -97 102 -125 243 -326 327 -465 258 -426
453 -928 549 -1410 52 -266 65 -429 66 -820 0 -330 -3 -388 -23 -535 -86 -632
-279 -1203 -587 -1745 -43 -75 -60 -118 -71 -175 -8 -41 -25 -120 -38 -175
-14 -55 -27 -114 -30 -130 l-7 -31 98 -23 c275 -65 683 -227 853 -340 163
-108 204 -227 112 -324 -42 -44 -67 -54 -289 -107 -245 -60 -424 -109 -437
-121 -6 -5 23 -74 72 -171 139 -279 195 -464 172 -573 -14 -66 -59 -131 -115
-162 -64 -36 -130 -31 -282 22 -436 153 -953 274 -1426 335 -191 25 -264 51
-342 122 -67 61 -89 96 -111 178 -10 36 -19 66 -20 68 -1 2 -69 -32 -151 -76
-81 -43 -175 -89 -208 -102 -33 -13 -90 -42 -126 -66 l-66 -42 -13 -68 c-7
-38 -21 -93 -32 -123 -58 -171 -198 -300 -383 -353 l-80 -23 -970 0 c-964 1
-970 1 -1047 22 -181 51 -304 148 -381 299 -32 63 -57 148 -57 193 0 34 -6 40
-95 105 -130 95 -291 257 -356 359 -23 37 -25 38 -68 32 -67 -10 -74 -14 -66
-44 37 -149 -9 -289 -127 -381 -62 -50 -138 -77 -262 -96 -665 -102 -1003
-178 -1412 -318 -205 -71 -267 -80 -337 -51 -120 50 -167 195 -118 366 31 109
165 406 232 515 l19 32 -72 22 c-40 12 -193 53 -342 91 -173 44 -281 77 -302
91 -47 32 -74 86 -74 145 0 104 94 188 343 308 152 74 480 190 647 231 63 15
117 29 119 30 2 2 -17 85 -42 186 -25 101 -48 197 -52 215 -3 18 -38 87 -77
155 -296 518 -497 1104 -568 1656 -87 671 -12 1337 223 1979 248 679 630 1270
1161 1798 294 292 616 548 869 689 37 21 67 39 67 41 0 2 -41 27 -91 56 -73
42 -88 54 -77 65 23 22 464 202 661 270 536 183 985 278 1452 308 109 7 488
-4 635 -19z m3223 -915 c7 -77 31 -150 65 -202 29 -44 87 -75 187 -99 76 -18
74 -21 -26 -39 -147 -26 -209 -104 -226 -285 -3 -36 -9 -65 -13 -65 -4 0 -10
29 -14 64 -13 128 -58 215 -131 253 -40 21 -122 43 -162 43 -48 0 -40 16 11
23 61 9 151 44 187 74 16 14 39 43 50 65 24 48 48 155 49 218 1 64 16 31 23
-50z m-7199 -55 c31 -29 32 -35 7 -63 -24 -29 -42 -28 -71 3 l-24 25 29 30
c16 17 29 30 30 30 1 0 14 -11 29 -25z m28 -352 c22 -20 23 -41 1 -65 -23 -25
-48 -22 -72 9 l-21 26 22 24 c25 27 45 29 70 6z m-712 -413 c0 -9 -9 -25 -20
-35 -18 -17 -21 -17 -45 -1 -31 20 -31 33 -4 62 20 21 23 22 45 7 13 -8 24
-23 24 -33z m267 -136 l25 -25 -23 -25 c-28 -30 -40 -30 -67 -1 l-22 24 21 26
c25 33 33 34 66 1z m7985 -71 c21 -20 38 -42 37 -48 0 -5 -18 -25 -40 -44
l-39 -33 -39 33 c-22 19 -40 38 -40 43 -1 12 61 84 74 85 5 1 26 -16 47 -36z
m-8418 -115 c13 -19 14 -25 2 -43 -31 -46 -93 -10 -66 39 16 32 44 33 64 4z
m8656 -53 c19 -20 22 -30 14 -42 -20 -32 -41 -39 -63 -19 -24 22 -26 38 -9 66
17 26 30 25 58 -5z m-8390 -4800 c22 -23 22 -25 6 -50 -19 -29 -42 -32 -68 -8
-22 20 -23 28 0 58 22 31 33 31 62 0z m156 -180 l49 -45 -25 -17 c-14 -10 -36
-28 -48 -41 l-24 -23 -41 37 c-23 21 -44 42 -46 47 -3 9 66 82 80 86 3 0 28
-19 55 -44z"/>
<path d="M5010 9340 c-30 -10 -136 -48 -235 -84 -99 -37 -252 -94 -340 -126
-88 -32 -288 -106 -445 -165 -157 -59 -368 -137 -470 -175 -162 -59 -371 -138
-749 -282 -58 -21 -114 -45 -125 -51 -12 -6 -77 -34 -146 -62 l-125 -51 1 -43
c1 -33 7 -48 23 -60 l22 -17 -81 -229 c-122 -348 -108 -319 -167 -326 -64 -8
-119 -26 -163 -54 -51 -32 -119 -109 -143 -163 -45 -100 -50 -246 -11 -327 14
-30 14 -36 0 -63 -24 -47 -65 -198 -81 -297 -17 -107 -19 -334 -4 -460 6 -49
21 -132 35 -184 14 -51 23 -95 21 -98 -3 -2 -16 16 -30 40 -39 66 -50 73 -88
51 -24 -14 -36 -31 -46 -67 -20 -69 -11 -93 14 -39 l20 43 7 -32 c3 -17 6 -53
6 -80 0 -37 -4 -49 -15 -49 -9 0 -45 -29 -80 -65 l-65 -65 0 33 c0 77 22 219
47 302 23 76 27 109 27 205 0 96 -4 124 -22 169 -44 105 -117 183 -157 167
-20 -7 -72 -102 -92 -166 -12 -38 -17 -91 -18 -170 0 -104 3 -121 26 -170 34
-73 82 -127 120 -135 29 -7 30 -8 24 -49 -4 -23 -10 -85 -13 -137 l-7 -94 -36
75 c-34 71 -180 281 -200 288 -15 6 -67 -115 -85 -196 -24 -110 -16 -259 18
-334 49 -105 163 -198 243 -198 l32 0 6 -87 c4 -49 9 -106 13 -128 l7 -40 -45
55 c-47 57 -283 290 -293 290 -3 0 -15 -19 -25 -42 -26 -57 -28 -269 -4 -362
35 -138 119 -255 216 -303 33 -17 63 -23 111 -23 73 0 68 5 83 -94 l7 -49 -24
22 c-70 66 -193 107 -288 96 -80 -9 -85 -14 -79 -72 9 -97 98 -223 195 -275
62 -33 152 -52 212 -43 25 4 48 7 51 6 4 0 28 -93 30 -112 0 -4 -32 2 -72 12
-83 22 -220 25 -258 6 -61 -30 -18 -129 95 -220 117 -94 259 -144 381 -133
l71 5 56 -63 c32 -36 112 -103 189 -159 74 -53 143 -106 153 -118 20 -22 20
-22 0 -16 -11 3 -47 17 -81 31 -86 36 -230 59 -340 54 -131 -5 -166 -33 -139
-111 25 -74 164 -206 278 -264 104 -52 287 -79 374 -54 29 8 35 6 53 -17 16
-20 18 -27 8 -33 -7 -4 -80 -19 -163 -34 -420 -74 -744 -161 -786 -211 -15
-19 -5 -77 62 -352 27 -111 49 -206 49 -212 0 -5 -12 -12 -27 -16 -420 -90
-931 -289 -1064 -414 -87 -82 -80 -87 236 -166 214 -54 541 -147 553 -159 2
-2 -39 -88 -91 -191 -203 -406 -254 -574 -197 -654 35 -49 55 -47 284 29 429
142 809 230 1276 296 239 33 308 54 367 108 24 22 54 59 66 82 29 56 27 149
-6 238 -13 37 -22 69 -18 71 8 5 225 53 277 61 l40 6 51 -68 c128 -172 283
-323 415 -406 62 -39 67 -45 68 -77 0 -19 7 -65 15 -103 39 -186 189 -330 380
-367 43 -8 323 -10 1010 -8 l950 3 60 24 c78 31 158 84 195 129 68 83 120 219
120 319 0 23 6 47 13 53 6 6 50 38 96 72 106 78 269 241 346 346 l60 83 45 -7
c64 -8 293 -54 299 -59 2 -3 -6 -28 -18 -57 -13 -29 -25 -85 -28 -125 -5 -64
-3 -78 21 -127 32 -65 81 -109 151 -135 28 -10 138 -31 245 -46 483 -66 929
-172 1341 -315 95 -33 181 -60 191 -60 11 0 35 15 54 34 27 27 34 42 34 73 0
100 -65 272 -213 562 -59 117 -107 215 -105 216 10 10 364 110 568 160 129 32
243 65 253 73 49 43 -5 97 -203 201 -123 64 -203 97 -400 167 -110 40 -389
120 -477 139 -18 4 -33 12 -33 19 0 7 16 77 36 157 55 226 84 367 78 382 -22
58 -430 171 -876 243 -93 15 -168 30 -168 33 0 3 8 16 18 29 17 22 21 23 66
11 68 -17 226 -6 304 21 173 61 380 258 359 342 -4 13 -21 32 -39 43 -29 17
-50 20 -163 19 -142 -1 -209 -14 -329 -65 -38 -16 -71 -27 -74 -24 -7 7 -9 6
148 122 74 55 163 130 197 167 l62 66 73 0 c151 0 321 67 430 168 99 93 114
151 48 184 -44 22 -131 23 -236 3 -43 -8 -79 -13 -81 -12 -2 2 4 26 12 54 l15
50 53 -5 c65 -5 145 11 212 42 103 47 205 188 205 282 0 37 -4 43 -30 54 -19
8 -60 11 -113 8 -91 -5 -157 -29 -221 -80 -30 -24 -37 -27 -33 -12 3 11 9 43
12 72 l7 52 71 0 c165 0 300 122 353 320 18 67 27 317 12 352 -11 28 -212 -97
-311 -194 l-80 -77 7 47 c3 26 9 80 12 120 l7 72 36 0 c50 1 111 30 166 81
109 101 156 256 134 446 -11 98 -37 193 -55 200 -13 5 -203 -187 -250 -253
l-31 -43 -7 76 c-10 121 -10 120 27 132 47 16 111 86 144 156 52 114 38 335
-28 444 -19 31 -20 31 -48 17 -45 -24 -109 -103 -150 -188 l-38 -77 -27 132
c-16 73 -37 161 -49 197 -13 43 -21 97 -22 160 -1 78 -7 112 -34 190 -54 160
-141 292 -200 305 -42 9 -82 -15 -111 -67 -33 -58 -40 -188 -15 -274 49 -170
178 -314 281 -314 l42 0 25 -107 c14 -60 28 -126 31 -148 l6 -41 -53 50 c-64
61 -195 148 -216 144 -24 -5 -27 -176 -6 -260 47 -180 193 -329 324 -330 l48
0 6 -107 c10 -164 10 -163 -91 -61 -106 106 -250 200 -266 173 -12 -22 0 -244
17 -308 17 -63 53 -144 74 -167 9 -10 14 -20 12 -22 -2 -2 -56 -30 -119 -61
-131 -65 -162 -89 -315 -235 -150 -145 -383 -340 -405 -340 -4 0 -10 19 -13
43 -10 71 -65 226 -125 346 -49 102 -66 125 -146 206 -99 99 -223 186 -398
279 -60 32 -108 60 -108 62 0 3 7 18 15 35 21 40 55 149 55 177 0 45 24 25 69
-58 l29 -52 16 88 c20 108 20 204 1 304 -67 353 -88 423 -151 507 -13 17 -24
34 -24 37 0 2 17 10 38 17 83 27 182 92 182 120 0 4 -17 11 -37 14 -90 14
-151 28 -193 46 l-44 20 34 20 c95 58 220 230 204 281 -6 20 -11 21 -103 15
l-96 -6 70 72 c104 108 191 274 209 397 l7 45 -26 -29 c-14 -15 -28 -26 -31
-24 -2 3 7 30 21 62 30 68 52 186 38 210 -8 15 -25 7 -134 -65 -166 -110 -277
-158 -467 -202 l-59 -14 -12 196 c-6 108 -14 206 -17 218 -8 28 -1 31 186 88
85 25 238 73 340 105 102 32 282 89 400 125 303 93 300 92 300 126 0 17 -7 32
-17 38 -19 9 -145 44 -758 210 -622 168 -1152 308 -1482 392 -254 64 -309 70
-403 39z m271 -191 c112 -28 206 -53 209 -56 7 -8 -77 5 -215 33 -66 13 -138
24 -160 24 -36 0 -163 -39 -369 -112 -44 -16 -64 -28 -55 -32 8 -3 4 -4 -8 -2
-13 2 -23 0 -23 -5 0 -5 -8 -9 -18 -9 -18 0 -99 -24 -137 -40 -11 -5 -39 -14
-62 -21 -24 -7 -40 -16 -36 -22 3 -6 1 -7 -4 -4 -11 7 -194 -53 -246 -80 -15
-7 -25 -18 -22 -23 4 -6 3 -10 -2 -10 -4 0 -19 -3 -32 -7 -17 -4 -22 -3 -17 5
6 11 -34 -3 -194 -63 -25 -9 -54 -21 -65 -26 -11 -5 -72 -27 -135 -49 -63 -23
-137 -49 -165 -60 -27 -11 -95 -35 -150 -54 -55 -19 -158 -55 -230 -81 -71
-26 -153 -55 -182 -65 -53 -19 -153 -37 -143 -27 13 14 195 88 515 208 88 33
206 78 262 100 56 21 104 39 107 39 4 0 84 29 179 64 400 149 539 200 662 243
184 64 529 183 531 183 0 0 93 -23 205 -51z m-2701 -934 c-60 -218 -175 -593
-183 -601 -7 -7 -37 7 -37 18 0 6 36 123 79 262 44 138 94 296 110 351 27 88
77 193 86 183 2 -2 -22 -98 -55 -213z m1880 205 c-14 -4 -55 -15 -91 -23 -81
-19 -223 -88 -265 -128 -18 -17 -34 -26 -38 -21 -9 16 100 111 158 138 66 30
121 42 201 42 44 0 54 -2 35 -8z m-452 -92 c-10 -17 -14 -99 -16 -310 -3 -285
-3 -287 18 -298 12 -6 113 -31 225 -55 112 -24 254 -58 316 -75 63 -17 146
-40 186 -50 39 -11 78 -20 86 -20 8 0 25 -9 38 -19 24 -19 24 -19 -36 -6 -33
8 -177 34 -320 59 -220 38 -397 76 -587 127 l-37 10 5 247 c3 136 11 263 16
282 6 19 33 56 60 82 55 53 65 59 46 26z m411 -22 c-105 -41 -163 -70 -209
-105 l-35 -26 32 41 c34 44 109 85 195 108 96 26 105 16 17 -18z m-1542 -146
c67 -5 149 -10 182 -10 55 0 65 -3 98 -33 96 -84 167 -113 323 -128 58 -6 117
-14 133 -19 15 -5 27 -5 27 0 0 13 -46 43 -135 88 -134 68 -135 70 -4 56 120
-14 241 -32 272 -41 17 -5 18 -14 12 -136 -4 -73 -9 -134 -11 -136 -6 -6 -186
40 -274 71 -100 35 -226 105 -330 183 l-75 56 -9 -31 c-12 -41 8 -151 40 -221
l25 -54 -30 29 c-37 35 -38 25 -12 -60 50 -159 108 -261 205 -363 l61 -64 -70
6 c-91 8 -115 2 -115 -31 0 -65 85 -179 184 -247 31 -21 53 -41 51 -46 -10
-15 -118 -50 -176 -56 -33 -3 -62 -10 -65 -15 -17 -27 57 -86 148 -118 29 -10
52 -21 52 -25 -1 -4 -20 -31 -42 -61 -46 -62 -75 -132 -91 -219 -36 -199 -51
-314 -51 -392 0 -95 20 -243 32 -243 4 0 8 5 8 12 0 6 12 32 26 56 l27 45 28
-86 c15 -47 35 -100 44 -116 21 -42 20 -45 -22 -65 -119 -56 -400 -232 -433
-271 -7 -8 -16 -15 -21 -15 -5 0 -25 32 -44 70 l-35 70 60 0 c44 0 83 9 140
31 44 17 82 34 85 38 2 5 -58 113 -135 241 -124 208 -155 269 -118 232 16 -16
48 -15 48 1 0 6 -22 47 -50 90 -53 83 -53 85 25 67 22 -5 41 -7 43 -5 3 2 -16
28 -40 57 -106 126 -187 259 -234 385 -27 72 -29 84 -11 79 6 -3 25 -7 41 -11
29 -6 29 -6 13 19 -18 28 -35 56 -115 200 l-54 99 18 61 c27 88 25 196 -5 269
-13 31 -28 57 -33 57 -12 0 -14 -10 45 180 54 173 123 412 132 457 6 31 8 32
48 28 23 -3 97 -9 164 -15z m1183 -40 c0 -41 -3 -50 -17 -49 -11 0 -13 3 -5 6
7 3 12 23 12 49 0 24 2 44 5 44 3 0 5 -22 5 -50z m60 -211 c35 -48 14 -47 -38
2 -25 24 -49 45 -51 47 -3 1 1 8 7 14 7 7 12 28 12 48 1 34 1 34 25 -22 13
-32 33 -72 45 -89z m-103 69 c-3 -8 -6 -5 -6 6 -1 11 2 17 5 13 3 -3 4 -12 1
-19z m111 -211 l37 -39 -40 17 c-57 23 -67 36 -71 96 l-3 54 20 -45 c11 -25
37 -62 57 -83z m-847 72 c48 -34 186 -93 334 -144 77 -26 232 -92 344 -146
112 -55 206 -97 209 -94 3 3 3 6 1 8 -2 2 -26 19 -52 38 -27 18 -44 35 -37 37
35 12 502 -105 629 -158 182 -77 350 -187 388 -255 9 -16 16 -12 69 42 100
102 318 230 474 279 100 32 353 94 381 94 22 0 22 0 3 -21 -10 -12 -31 -27
-46 -35 -16 -8 -28 -19 -28 -24 0 -6 11 -3 25 6 31 20 33 9 3 -16 -40 -32 -13
-32 48 -1 221 114 431 207 581 256 92 31 212 77 265 104 l97 48 -21 -31 c-12
-17 -62 -71 -111 -120 -72 -71 -105 -96 -170 -127 l-82 -39 46 4 c25 1 51 6
58 10 7 5 15 5 18 2 3 -3 13 -1 22 6 9 6 -2 -7 -24 -28 -22 -22 -43 -38 -48
-36 -8 4 -68 -44 -62 -50 2 -2 -15 -2 -38 -1 -35 2 -38 1 -17 -6 21 -8 22 -9
5 -10 -11 0 -27 4 -35 9 -13 9 -13 11 0 20 8 5 23 10 33 10 9 0 17 4 17 10 0
6 -9 6 -25 0 -38 -14 -30 3 11 25 48 26 27 31 -28 7 -76 -35 -171 -72 -183
-72 -20 0 -38 -27 -23 -34 7 -3 1 -3 -14 0 -17 4 -28 2 -28 -5 0 -6 -10 -11
-21 -11 -17 0 -19 -3 -11 -13 9 -10 3 -14 -31 -15 -54 -3 -115 -31 -96 -43 10
-6 6 -9 -13 -9 -29 0 -46 -15 -26 -23 7 -3 3 -6 -9 -6 -27 -1 -69 -40 -65 -59
2 -8 -5 -11 -20 -9 -13 2 -17 2 -10 0 7 -3 10 -8 7 -12 -2 -5 12 -7 33 -5 l37
3 -38 -14 c-27 -10 -45 -12 -57 -5 -26 14 -33 12 -26 -5 3 -10 -1 -15 -12 -15
-10 0 -35 -9 -57 -20 -22 -11 -45 -20 -52 -20 -7 0 -13 -4 -13 -8 0 -4 -17
-14 -37 -21 -21 -8 -41 -19 -45 -25 -6 -8 -11 -6 -18 4 -5 8 -10 10 -10 5 0
-13 -79 -35 -85 -25 -3 5 1 11 7 13 8 3 6 6 -4 6 -10 1 -18 -3 -18 -9 0 -5 -7
-10 -15 -10 -40 0 -203 -148 -189 -172 3 -5 1 -7 -4 -6 -15 5 -62 -58 -88
-119 l-25 -58 6 50 5 50 -29 -55 -29 -55 3 80 c2 73 19 155 31 155 2 0 2 -12
-1 -27 -5 -24 -4 -23 10 6 9 19 13 41 10 48 -2 8 -1 12 4 8 5 -3 20 12 32 32
13 21 48 64 77 96 30 32 51 61 48 64 -3 3 4 13 15 22 19 15 19 18 6 30 -22 17
-47 3 -131 -74 -25 -24 -145 -217 -151 -243 -2 -9 -9 -30 -16 -47 -10 -24 -13
-27 -17 -11 -9 40 40 173 96 261 15 22 25 48 23 58 -1 9 4 20 13 23 8 3 17 12
20 20 10 26 -35 -5 -98 -67 -32 -33 -62 -59 -66 -59 -3 0 -19 13 -35 30 -40
42 -102 83 -114 76 -10 -6 -4 -35 8 -46 14 -12 72 -141 67 -149 -3 -5 -2 -30
3 -56 5 -26 6 -43 2 -38 -3 4 -17 21 -31 36 -21 24 -22 30 -10 37 9 6 10 10 3
10 -21 0 -26 -22 -28 -109 -2 -119 -4 -131 -15 -131 -5 0 -10 6 -10 13 0 8 -9
22 -20 32 -22 20 -25 10 -9 -32 12 -32 8 -29 -54 52 -58 76 -141 164 -189 200
-42 30 -47 27 -20 -13 28 -41 36 -60 14 -35 -11 12 -22 19 -26 16 -3 -4 -6 1
-6 10 0 9 -5 17 -11 17 -6 0 -9 7 -6 14 4 10 1 13 -9 9 -7 -3 -14 0 -14 6 0 6
-6 8 -14 5 -8 -3 -29 8 -47 23 -78 67 -170 110 -210 100 -11 -3 -19 -1 -19 4
0 5 -19 7 -43 5 -39 -4 -127 24 -127 40 0 3 5 2 12 -2 7 -4 8 -3 4 4 -4 6 -14
8 -23 5 -12 -5 -14 -3 -8 7 5 8 4 11 -3 7 -5 -4 -34 5 -63 20 -40 21 -56 35
-62 58 -5 18 -19 35 -35 43 -33 15 -37 11 -11 -17 12 -12 18 -25 15 -28 -3 -4
-12 2 -20 12 -8 11 -20 16 -29 12 -10 -4 -16 -2 -14 6 1 7 -4 11 -12 9 -23 -5
-72 9 -65 19 4 7 -1 10 -18 9 -7 -1 -114 33 -123 38 -5 4 -18 8 -27 9 -9 1
-65 24 -124 50 -83 37 -121 60 -163 102 -37 35 -46 47 -26 35 17 -10 55 -33
85 -51 30 -18 61 -37 68 -43 6 -6 12 -7 12 -2 0 4 -25 29 -55 55 -48 42 -166
181 -138 164 6 -4 11 3 11 18 0 23 -9 30 -33 25 -5 -1 -7 2 -3 6 4 4 -8 29
-28 55 -39 53 -37 60 7 28z m1369 -129 c8 -5 11 -10 5 -10 -5 0 -17 5 -25 10
-8 5 -10 10 -5 10 6 0 17 -5 25 -10z m2200 -150 c-44 -39 -126 -84 -183 -101
-25 -7 -27 -6 -17 6 7 8 18 15 25 15 8 0 15 4 17 8 4 10 180 112 193 111 6 0
-10 -18 -35 -39z m-4581 -14 c54 -28 111 -142 111 -220 0 -45 -27 -113 -54
-135 -15 -12 -26 -11 -84 7 -78 26 -105 27 -158 8 -22 -7 -43 -11 -49 -10 -5
2 -18 -11 -28 -29 l-19 -32 -16 30 c-8 17 -17 62 -20 101 -8 127 43 224 142
270 59 27 133 31 175 10z m4226 -124 c-3 -3 -11 0 -18 7 -9 10 -8 11 6 5 10
-3 15 -9 12 -12z m1904 -218 c34 -52 65 -138 58 -158 -3 -8 3 -52 14 -98 28
-118 28 -121 19 -143 -5 -11 -9 -14 -9 -7 -1 21 -54 62 -67 51 -16 -13 -60 40
-93 111 -33 70 -36 192 -7 253 24 50 47 48 85 -9z m-4794 11 c72 -9 132 -18
134 -20 1 -2 0 -9 -4 -16 -11 -17 -156 -4 -236 22 -70 23 -105 46 -54 36 17
-4 89 -13 160 -22z m1835 -35 c-20 -13 -33 -13 -25 0 3 6 14 10 23 10 15 0 15
-2 2 -10z m611 -4 c-6 -8 -21 -16 -32 -19 -24 -6 -19 1 13 19 31 16 32 16 19
0z m-1731 -71 c14 -8 21 -14 15 -14 -5 0 -21 6 -35 14 -14 8 -20 14 -15 14 6
0 21 -6 35 -14z m-2190 -158 c6 -29 13 -81 15 -117 9 -148 141 -629 241 -875
53 -130 103 -249 114 -267 21 -36 9 -41 -20 -8 -16 19 -29 29 -30 22 0 -15 19
-49 43 -75 26 -26 48 -83 41 -102 -4 -8 0 -23 7 -33 7 -9 1 -6 -15 8 -39 35
-113 143 -147 213 -31 67 -31 68 -54 -78 -26 -164 -22 -158 -60 -79 -19 38
-37 90 -41 116 -4 26 -10 45 -15 43 -9 -6 -1 -107 12 -152 6 -17 12 -44 15
-60 4 -27 3 -27 -11 -9 -43 56 -97 161 -124 241 -41 122 -60 241 -68 417 -3
82 -9 148 -12 148 -11 -1 -61 -80 -61 -97 0 -11 -3 -14 -10 -7 -51 51 -30 687
26 771 8 13 22 23 32 23 16 0 17 -13 11 -157 -4 -87 -10 -167 -13 -178 -5 -14
-3 -13 7 4 14 24 14 24 19 -14 2 -21 -2 -61 -9 -89 -19 -73 -11 -91 12 -27 19
52 20 53 26 25 4 -16 7 -63 8 -104 1 -46 5 -70 10 -61 15 23 24 -6 16 -55 -3
-26 -2 -44 3 -44 11 0 23 -49 24 -93 1 -20 3 -24 9 -15 6 8 9 1 9 -22 0 -49
10 -81 23 -73 7 4 8 -19 4 -73 l-6 -79 24 49 24 49 6 -29 c10 -43 36 -126 47
-147 8 -15 11 -16 23 -3 18 18 19 32 3 40 -7 3 -3 3 10 0 28 -7 28 -1 -4 77
-122 297 -191 604 -201 894 -5 145 -5 159 10 147 9 -7 21 -37 27 -65z m6347
41 c-3 -8 -6 -5 -6 6 -1 11 2 17 5 13 3 -3 4 -12 1 -19z m-6112 -90 c15 -23
55 -140 55 -162 0 -6 -7 -2 -15 8 -8 11 -15 17 -15 14 0 -3 -24 16 -54 44 -45
41 -54 55 -54 84 0 32 2 34 33 34 24 0 39 -7 50 -22z m1693 -60 c-83 -82 -119
-145 -126 -222 l-4 -51 30 46 c26 41 88 99 105 99 3 0 -5 -29 -18 -65 -29 -77
-34 -188 -10 -254 54 -154 219 -249 385 -224 94 15 170 52 239 118 65 61 104
126 125 206 l15 54 0 -56 c2 -116 -57 -243 -147 -317 -104 -86 -193 -134 -287
-155 -11 -3 20 -5 68 -6 49 0 119 6 158 15 39 9 73 14 75 11 8 -8 -74 -53
-131 -72 -65 -23 -196 -30 -267 -16 -98 21 -193 74 -273 154 -198 199 -221
491 -52 683 42 47 150 124 176 124 7 0 -20 -33 -61 -72z m2152 19 c77 -62 143
-156 166 -235 22 -74 22 -201 0 -277 -62 -213 -254 -379 -464 -401 -107 -12
-288 37 -331 89 -16 20 -18 20 44 1 28 -8 95 -17 150 -19 55 -2 89 -2 75 1
-64 14 -169 76 -245 147 -113 105 -166 210 -164 332 l0 50 13 -45 c34 -128
118 -230 234 -287 73 -36 81 -38 177 -38 87 0 107 3 155 26 106 49 165 125
190 241 15 64 3 145 -30 224 -13 28 -15 44 -8 44 17 0 96 -86 113 -123 15 -32
15 -31 9 28 -8 79 -42 149 -104 210 -98 97 -85 117 20 32z m174 -8 c-3 -5 1
-6 8 -4 16 6 107 -80 149 -141 49 -71 63 -133 63 -269 0 -107 -3 -128 -28
-195 -26 -69 -64 -137 -93 -168 -7 -7 -13 -17 -13 -21 0 -4 -24 -33 -54 -64
-32 -33 -48 -57 -40 -57 25 0 7 -17 -54 -53 -64 -38 -158 -71 -242 -86 -110
-19 -295 17 -360 70 l-25 20 70 -8 c207 -23 453 27 531 108 32 33 22 38 -21 9
-61 -40 -52 -18 23 58 133 133 188 278 179 472 -5 118 -25 183 -87 286 -30 50
-34 60 -19 57 10 -3 16 -9 13 -14z m-2864 -15 c0 -3 -18 -36 -39 -72 -21 -37
-47 -92 -56 -122 -17 -51 -82 -156 -92 -146 -8 7 26 127 51 181 34 75 136 194
136 159z m4915 -4 c3 -5 1 -10 -4 -10 -6 0 -11 5 -11 10 0 6 2 10 4 10 3 0 8
-4 11 -10z m-4728 -42 c-41 -52 -58 -81 -30 -53 21 21 66 60 98 85 17 14 18
13 12 -3 -4 -11 -3 -16 4 -12 5 4 16 5 23 2 10 -4 6 -20 -16 -66 -55 -115 -72
-265 -43 -388 29 -125 117 -270 214 -353 43 -37 44 -39 16 -31 -16 5 -39 12
-49 17 -39 15 -5 -16 42 -40 67 -33 165 -63 255 -77 76 -12 250 -8 292 6 l20
7 -20 -17 c-61 -52 -221 -91 -335 -82 -105 9 -223 42 -300 84 -60 34 -200 162
-200 183 0 6 -6 10 -14 10 -8 0 -17 7 -20 16 -4 10 -2 13 7 9 6 -4 3 2 -8 12
-22 19 -40 52 -36 66 1 5 -2 6 -7 3 -7 -4 -8 -34 -3 -76 2 -11 4 -10 10 4 7
17 8 17 14 3 4 -10 0 -18 -13 -22 -10 -3 -21 -14 -23 -23 -3 -9 -5 -2 -6 17 0
19 -7 39 -15 45 -17 14 -30 66 -17 66 6 0 8 7 4 17 -5 13 -2 15 17 10 17 -4
20 -3 11 6 -6 6 -11 20 -11 31 -1 20 -1 20 -13 -2 -11 -18 -13 6 -12 145 1
155 3 174 27 240 29 81 70 143 119 179 18 13 35 24 37 24 2 0 -12 -19 -31 -42z
m-1343 -111 c34 -70 59 -127 55 -127 -8 0 -66 70 -92 112 -18 29 -50 165 -35
150 5 -5 37 -66 72 -135z m0 72 c14 -17 26 -40 25 -52 0 -15 -2 -17 -6 -7 -3
8 -19 32 -35 53 -35 44 -21 50 16 6z m1972 -15 c72 -48 71 -150 -4 -196 -27
-17 -44 -20 -87 -15 -54 5 -54 5 -45 -19 30 -77 70 -122 140 -153 87 -40 192
-23 266 42 48 42 69 75 84 134 10 38 10 38 5 -10 -14 -145 -165 -277 -316
-277 -110 0 -187 39 -239 119 -53 84 -57 199 -10 291 19 37 64 84 90 93 31 11
92 6 116 -9z m1383 0 c38 -22 53 -51 53 -95 -1 -49 -16 -75 -55 -99 -58 -36
-136 -20 -163 31 -53 103 67 221 165 163z m389 -99 c36 -69 38 -179 3 -244
-89 -169 -321 -202 -458 -64 -44 43 -85 119 -97 178 -5 23 0 19 20 -20 55
-105 121 -149 224 -149 106 0 192 51 236 141 25 53 30 158 10 207 -9 21 -16
41 -16 44 0 16 56 -50 78 -93z m-3684 -165 c26 -47 59 -114 72 -150 l25 -65
-29 33 c-41 47 -48 39 -12 -13 17 -25 47 -79 65 -120 19 -40 56 -110 84 -155
28 -45 51 -84 51 -88 0 -4 -31 24 -69 62 -46 46 -80 91 -105 140 -32 65 -176
463 -176 488 0 18 46 -47 94 -132z m1026 95 c-15 -66 -12 -184 5 -201 10 -11
15 -36 15 -84 0 -38 5 -72 10 -75 6 -3 10 -25 10 -48 0 -26 4 -37 8 -29 5 7
16 10 27 6 16 -7 17 -16 9 -108 -11 -140 -9 -192 14 -259 22 -66 8 -61 -31 11
-33 60 -57 159 -57 234 0 72 -16 83 -31 23 -20 -78 -34 -38 -37 105 l-4 128
-27 -31 c-15 -18 -33 -41 -40 -52 -27 -44 0 86 43 207 41 115 86 221 92 215 2
-1 -1 -20 -6 -42z m-1933 -183 c3 -31 1 -73 -5 -92 l-10 -35 -3 30 c-2 30 -5
14 -26 -135 l-8 -55 -18 25 c-53 75 -53 268 -1 388 l16 37 25 -53 c14 -30 27
-79 30 -110z m7388 -20 c0 -97 -4 -135 -17 -162 -12 -25 -17 -30 -17 -15 -1
14 -9 6 -25 -25 -14 -25 -30 -44 -35 -42 -6 1 -12 -2 -12 -8 -1 -6 -2 -14 -3
-19 0 -5 -4 -12 -8 -16 -13 -14 -20 46 -16 138 5 104 29 181 78 252 46 67 55
51 55 -103z m-3746 102 c17 -4 51 -24 76 -46 47 -41 58 -62 28 -51 -14 5 -12
-1 7 -22 l25 -29 -30 23 c-28 21 -30 22 -33 4 -2 -10 -8 -22 -12 -27 -5 -4 -6
-23 -3 -42 5 -30 3 -32 -16 -27 -15 4 -21 13 -21 34 0 15 -4 31 -10 34 -5 3
-10 15 -10 26 0 10 -4 19 -8 19 -13 0 -37 -368 -37 -542 1 -82 -2 -148 -6
-148 -13 0 -28 27 -82 150 -30 69 -82 178 -116 244 -70 133 -70 130 -18 234
65 131 156 188 266 166z m3364 -113 c22 -20 52 -55 69 -79 31 -45 91 -182 83
-190 -2 -3 -7 3 -11 12 -3 9 -10 13 -15 10 -6 -3 -16 0 -24 6 -13 11 -85 50
-93 50 -2 0 0 -6 4 -12 4 -7 -7 0 -25 17 -48 45 -94 146 -99 218 l-5 60 39
-28 c22 -16 56 -45 77 -64z m-3833 -175 c0 -2 -8 -10 -17 -17 -16 -13 -17 -12
-4 4 13 16 21 21 21 13z m202 -139 c70 -129 101 -197 94 -205 -8 -8 -97 49
-141 89 -41 38 -65 90 -65 142 0 26 29 97 39 97 3 0 36 -55 73 -123z m-1180
-72 c-1 -24 0 -26 7 -10 7 17 9 16 15 -10 4 -16 27 -58 52 -93 60 -86 89 -142
65 -127 -5 3 -11 -2 -13 -10 -2 -8 -27 25 -56 75 -30 49 -58 88 -62 85 -17
-11 3 -144 36 -234 l24 -65 -41 40 c-42 40 -125 196 -115 213 4 5 2 12 -4 16
-5 3 -10 16 -9 28 0 21 1 21 10 2 8 -17 9 -16 4 5 -13 56 -15 96 -6 109 8 12
12 11 27 -4 12 -11 19 -14 22 -6 6 19 20 12 25 -11 3 -17 5 -14 6 9 1 27 -2
31 -16 26 -15 -6 -16 -5 -3 9 14 15 16 14 25 -1 5 -9 8 -29 7 -46z m2723 -10
c-38 -31 -46 -23 -9 9 16 13 31 22 34 19 3 -3 -8 -15 -25 -28z m-4525 -48 c0
-52 55 -246 94 -330 46 -100 136 -239 193 -299 l46 -47 36 26 c20 15 61 51 92
81 l56 54 37 -59 c46 -74 71 -103 88 -103 7 0 39 13 70 29 66 33 59 42 78 -95
l12 -81 -41 -81 c-72 -143 -148 -352 -191 -522 -12 -47 -29 -94 -39 -105 -60
-69 -91 -167 -91 -282 1 -48 7 -101 14 -118 12 -28 9 -36 -34 -120 -32 -60
-52 -114 -60 -162 -7 -40 -15 -73 -18 -73 -8 0 -159 109 -171 124 -11 13 -5
26 34 78 96 127 120 201 120 368 0 150 -12 187 -60 182 -43 -6 -122 -39 -160
-67 l-32 -25 -6 59 c-10 92 -42 165 -101 228 l-53 57 -47 -47 c-50 -50 -96
-135 -96 -177 0 -14 -4 -30 -8 -37 -8 -13 -77 210 -88 286 -7 41 -6 44 12 36
74 -32 135 -4 209 96 80 109 115 243 115 444 0 145 -6 155 -66 123 -93 -49
-248 -188 -281 -251 -8 -16 -17 -27 -19 -24 -7 7 -34 186 -34 230 0 36 1 37
35 37 47 0 100 28 153 81 81 81 131 198 152 349 16 119 30 181 41 174 5 -3 9
-20 9 -37z m-623 -9 c89 -141 133 -259 133 -353 -1 -35 -2 -38 -14 -23 -7 10
-16 15 -19 11 -4 -3 -7 -1 -7 5 0 7 -6 12 -13 12 -7 0 -34 19 -59 43 l-47 43
1 -29 c1 -15 4 -23 8 -17 4 6 7 -4 7 -21 l0 -32 -19 23 c-34 42 -51 126 -45
220 7 92 22 160 37 160 6 0 22 -19 37 -42z m7766 -55 c-3 -110 -19 -185 -49
-243 -28 -56 -70 -104 -83 -96 -5 3 -12 0 -14 -6 -4 -10 -8 -10 -15 1 -8 10
-13 8 -26 -10 -19 -27 -21 -43 -4 -33 7 4 8 3 4 -4 -8 -13 -39 -16 -49 -6 -8
8 7 37 53 99 60 79 71 107 64 159 l-7 46 -33 -25 c-18 -14 -35 -25 -39 -25 -3
0 17 33 44 73 54 79 138 170 150 163 4 -3 6 -45 4 -93z m-532 -48 c35 -31 73
-70 87 -88 23 -32 62 -101 62 -112 0 -3 -31 -21 -70 -39 l-70 -34 -35 71 c-43
88 -73 257 -45 257 5 0 37 -25 71 -55z m-6782 -57 c2 -70 -89 -218 -164 -269
-49 -33 -52 -26 -30 66 21 91 67 175 128 232 46 43 51 45 58 27 4 -10 8 -36 8
-56z m1695 -55 c4 -9 1 -20 -6 -25 -12 -7 -83 -51 -225 -137 -41 -25 -52 -36
-42 -42 9 -6 3 -7 -17 -3 -23 4 -33 2 -37 -10 -8 -19 4 -21 22 -3 11 10 12 9
5 -3 -5 -8 -9 -19 -9 -25 0 -18 -199 -84 -212 -71 -22 22 203 189 381 282 109
58 130 63 140 37z m1056 -88 c68 -9 142 -24 164 -34 43 -19 200 -130 193 -137
-2 -2 -48 17 -103 41 -54 25 -107 44 -117 41 -9 -2 -15 0 -11 5 3 5 -5 9 -18
10 -13 0 -32 2 -43 4 -11 2 -40 7 -65 10 -25 4 -56 9 -69 12 -15 4 -22 2 -18
-4 7 -10 29 -139 30 -176 1 -16 2 -17 13 -2 11 14 12 14 18 0 3 -9 2 -13 -4
-10 -6 3 -10 1 -10 -5 0 -6 -12 -10 -27 -8 -25 3 -27 7 -40 83 -7 44 -20 101
-28 127 -8 26 -15 49 -15 52 0 8 12 8 150 -9z m1367 -14 c-6 -16 -14 -29 -18
-28 -3 1 -20 -10 -37 -25 -19 -16 -32 -22 -35 -15 -5 15 -82 -8 -109 -33 -21
-19 -62 -34 -53 -20 3 5 1 11 -5 15 -5 3 -10 -1 -10 -9 0 -10 -9 -16 -22 -16
-18 0 -20 -2 -9 -9 10 -7 7 -9 -12 -8 -21 2 -23 5 -14 16 10 12 9 14 -6 8 -11
-4 -16 -3 -12 3 3 6 17 7 31 4 17 -5 24 -2 24 9 0 8 6 18 13 20 8 4 6 6 -4 6
-27 2 -77 -20 -83 -35 -3 -9 -10 -13 -15 -9 -6 3 -40 -8 -77 -25 -37 -16 -69
-30 -72 -30 -10 0 131 108 183 139 69 42 177 67 302 70 l51 1 -11 -29z m-3297
-61 c0 -5 -5 -10 -11 -10 -5 0 -7 5 -4 10 3 6 8 10 11 10 2 0 4 -4 4 -10z m17
-32 c-3 -8 -6 -5 -6 6 -1 11 2 17 5 13 3 -3 4 -12 1 -19z m6068 -31 c-81 -70
-101 -92 -217 -241 -57 -72 -122 -143 -149 -163 -26 -18 -49 -39 -51 -45 -2
-6 -30 19 -62 57 -56 66 -57 68 -39 89 46 56 92 100 128 126 37 25 434 230
445 230 3 -1 -22 -24 -55 -53z m-4093 36 c2 -5 20 -16 42 -26 21 -10 37 -20
35 -22 -6 -6 -99 39 -99 48 0 4 4 7 9 7 5 0 11 -3 13 -7z m-1958 -49 c3 -8 2
-12 -4 -9 -6 3 -10 10 -10 16 0 14 7 11 14 -7z m2083 10 c-3 -3 -12 -4 -19 -1
-8 3 -5 6 6 6 11 1 17 -2 13 -5z m527 -82 c28 -10 56 -28 65 -42 10 -15 11
-21 3 -16 -7 4 -25 9 -40 12 -15 2 -41 6 -59 9 -39 7 -169 -19 -187 -37 -39
-39 -47 -103 -21 -165 21 -49 13 -51 -17 -6 -45 66 -43 160 3 209 47 50 165
67 253 36z m-1179 -27 c150 -23 335 -70 433 -111 143 -59 316 -166 376 -233
24 -26 20 -26 -41 0 -26 12 -66 27 -88 35 l-40 14 25 -21 c14 -12 34 -27 44
-35 45 -31 3 -21 -95 22 -209 92 -388 142 -569 158 l-65 6 75 -25 c41 -14 111
-34 155 -46 127 -33 275 -80 345 -110 68 -30 72 -36 11 -19 -88 25 -599 137
-1159 254 -63 13 -116 27 -119 30 -14 14 14 20 117 24 61 3 110 8 110 13 0 4
-13 16 -30 26 -39 23 -38 31 8 36 74 10 409 -2 507 -18z m2660 16 c18 -8 17
-10 -12 -27 -18 -11 -33 -22 -33 -26 0 -5 35 -9 78 -9 89 -2 136 -10 134 -24
0 -5 -50 -20 -109 -32 -59 -12 -148 -30 -198 -42 -49 -11 -184 -41 -300 -66
-115 -26 -313 -71 -439 -101 -126 -30 -233 -53 -238 -52 -20 7 187 79 382 134
211 59 261 79 175 68 -188 -22 -381 -76 -559 -155 -105 -47 -143 -59 -132 -41
3 5 25 19 51 32 84 43 27 33 -77 -14 -32 -14 -58 -23 -58 -21 0 9 67 66 139
119 167 123 414 208 721 251 104 14 443 18 475 6z m2046 -98 c-13 -109 -31
-203 -40 -203 -3 0 -19 25 -34 56 -24 48 -26 59 -17 93 11 42 88 167 97 158 3
-3 0 -50 -6 -104z m-4191 73 c0 -2 -9 -6 -20 -9 -11 -3 -18 -1 -14 4 5 9 34
13 34 5z m-3284 -122 c112 -122 160 -195 189 -287 14 -43 25 -82 25 -87 0 -5
-30 1 -67 15 -51 18 -78 35 -107 67 -32 35 -37 39 -31 18 4 -14 16 -42 27 -63
l19 -38 -21 11 c-47 25 -102 151 -119 274 -13 94 -14 176 -2 176 5 0 44 -39
87 -86z m1690 40 c141 -26 695 -140 1039 -214 230 -50 333 -75 578 -142 154
-43 187 -55 187 -70 0 -24 -37 -23 -120 3 -123 39 -505 127 -730 168 -124 23
-346 66 -495 96 -148 30 -324 64 -390 75 -66 11 -128 23 -137 26 -12 4 -16 1
-13 -8 7 -21 65 -556 65 -604 0 -40 -2 -44 -24 -44 -14 0 -27 4 -30 9 -7 11
-37 212 -71 476 -14 110 -28 212 -31 228 -7 34 -7 34 172 1z m4338 13 c-2 -7
-67 -27 -147 -46 -283 -65 -405 -93 -592 -132 -378 -79 -631 -141 -889 -219
-93 -27 -175 -50 -182 -50 -8 0 -14 10 -14 24 0 21 8 26 78 44 517 134 723
182 1277 298 480 100 477 100 469 81z m1811 -39 c-4 -24 -11 -47 -16 -52 -5
-6 -9 -18 -9 -29 0 -32 -59 -161 -90 -194 -16 -18 -44 -39 -62 -46 -18 -8 -59
-35 -91 -62 -32 -26 -60 -45 -63 -42 -9 8 26 128 53 181 43 85 91 143 180 216
46 39 89 70 95 70 6 0 7 -16 3 -42z m-7259 -35 c-21 -123 -30 -162 -38 -151
-6 10 -8 10 -8 0 0 -7 -8 -32 -19 -55 -10 -23 -28 -64 -40 -92 -12 -27 -30
-57 -41 -67 -10 -10 -22 -24 -27 -32 -4 -8 -20 -17 -35 -21 -35 -9 -43 16 -29
92 17 94 82 212 160 292 37 39 72 71 76 71 4 0 4 -17 1 -37z m3417 -8 c-3 -9
-8 -14 -10 -11 -3 3 -2 9 2 15 9 16 15 13 8 -4z m3217 -83 c0 -5 -7 -17 -16
-28 -14 -17 -15 -17 -10 -1 3 10 6 23 6 28 0 5 5 9 10 9 6 0 10 -4 10 -8z
m-371 -79 c24 -35 27 -42 11 -28 l-23 20 8 -24 c6 -19 1 -17 -29 15 -37 39
-41 46 -29 57 15 15 31 5 62 -40z m-6305 -37 c-3 -15 -8 -25 -11 -23 -2 3 -1
17 3 31 3 15 8 25 11 23 2 -3 1 -17 -3 -31z m6197 -13 c54 -60 53 -58 12 -96
-21 -20 -66 -57 -100 -84 -177 -138 -406 -330 -411 -345 -2 -4 -52 -8 -110 -8
-104 0 -106 0 -82 17 21 15 213 174 575 475 44 37 83 67 86 68 3 0 16 -12 30
-27z m-4813 -57 c70 -72 84 -107 56 -137 -15 -17 -27 -20 -61 -16 -91 10 -167
122 -137 201 4 11 19 16 43 16 33 0 45 -8 99 -64z m5457 -33 c8 -37 12 -69 10
-72 -3 -2 -27 -6 -54 -9 l-49 -4 -22 42 c-14 28 -26 40 -36 36 -20 -8 -17 10
4 20 9 4 37 13 62 18 40 10 45 15 48 41 3 25 5 27 13 12 6 -9 16 -47 24 -84z
m-5910 -59 c-8 -38 -24 -98 -35 -134 -10 -36 -27 -94 -37 -128 -11 -38 -25
-68 -36 -74 -10 -5 -21 -8 -23 -5 -8 8 95 342 127 411 21 44 23 10 4 -70z
m2635 56 c0 -14 -62 -29 -170 -41 -52 -6 -108 -15 -125 -19 -16 -5 -52 -10
-78 -12 -27 -1 -53 -8 -59 -16 -20 -23 39 -68 109 -83 32 -7 60 -14 62 -15 1
-1 -6 -13 -18 -25 -17 -19 -27 -21 -70 -16 -33 4 -53 2 -57 -5 -5 -7 -2 -9 9
-5 9 3 18 -1 21 -9 12 -32 6 -37 -34 -30 -38 6 -40 5 -31 -13 12 -21 121 -51
188 -51 28 0 34 -3 23 -10 -8 -5 -28 -10 -45 -10 -44 0 -52 -9 -67 -70 -13
-54 -14 -55 -50 -58 -21 -2 -38 -8 -38 -14 0 -5 7 -8 15 -4 13 5 15 -14 15
-129 l0 -135 -25 -6 c-36 -9 -34 -49 3 -67 40 -21 157 -40 203 -34 64 9 44
-10 -24 -22 -35 -6 -73 -11 -85 -11 -15 0 -24 -10 -32 -36 -7 -19 -9 -38 -6
-41 11 -11 -16 -33 -40 -33 l-24 0 -2 -207 -3 -208 -26 -3 -27 -3 -6 488 c-3
268 -9 590 -12 715 l-6 227 129 -5 c79 -3 172 0 243 9 63 8 121 15 128 16 6 0
12 -3 12 -9z m2698 -35 c-12 -14 -23 -25 -25 -25 -2 0 4 11 13 25 9 14 20 25
25 25 5 0 -1 -11 -13 -25z m450 -20 c-3 -3 -9 2 -12 12 -6 14 -5 15 5 6 7 -7
10 -15 7 -18z m-69 -57 c72 -89 133 -115 195 -83 16 9 30 14 32 13 12 -13
-103 -438 -118 -438 -5 0 -8 12 -8 28 0 15 -7 54 -14 87 -16 66 -13 79 9 49
14 -18 14 -18 15 8 0 27 -62 111 -125 168 l-27 25 -40 -45 c-68 -75 -107 -142
-124 -212 l-16 -66 -81 39 c-45 21 -93 39 -109 39 -24 0 -29 -6 -43 -52 -18
-61 -20 -185 -4 -260 17 -81 70 -186 128 -256 l52 -62 -29 -25 c-16 -14 -61
-49 -99 -78 l-69 -54 -21 83 c-12 45 -37 116 -57 158 -34 75 -34 76 -19 123
27 88 -2 322 -45 365 -11 11 23 45 119 119 86 67 285 235 368 311 41 37 78 68
81 68 4 0 26 -24 49 -52z m-536 -13 c-19 -25 -33 -32 -33 -16 0 9 38 41 48 41
1 0 -5 -11 -15 -25z m-2866 9 c-3 -3 -12 -4 -19 -1 -8 3 -5 6 6 6 11 1 17 -2
13 -5z m2372 -48 l44 -23 -57 -43 c-31 -23 -58 -41 -60 -39 -9 10 8 129 18
129 6 -1 31 -11 55 -24z m-909 -319 c0 -173 -3 -368 -6 -433 l-7 -120 -397
-132 c-219 -73 -403 -132 -409 -132 -8 0 -11 114 -9 432 l3 433 120 44 c179
65 657 219 683 220 l22 1 0 -313z m1365 303 c3 -5 1 -10 -4 -10 -6 0 -11 5
-11 10 0 6 2 10 4 10 3 0 8 -4 11 -10z m-22 -15 c7 -16 -8 -29 -23 -20 -10 6
-2 35 10 35 4 0 10 -7 13 -15z m-32 -38 c-1 -12 -15 -9 -19 4 -3 6 1 10 8 8 6
-3 11 -8 11 -12z m-6436 -41 c20 -9 54 -29 75 -46 39 -31 101 -114 99 -134 0
-6 -3 -5 -6 3 -4 10 -7 10 -13 1 -11 -17 -100 3 -172 39 l-57 29 16 -25 c17
-25 17 -26 -3 -15 -37 20 -104 126 -104 165 0 14 119 2 165 -17z m7655 8 c0
-4 -9 -23 -20 -43 -15 -26 -34 -42 -68 -55 -96 -39 -238 -111 -255 -130 -21
-23 -32 -16 -23 17 7 31 70 115 108 146 49 39 137 70 201 71 31 0 57 -3 57 -6z
m-6301 -90 c-21 -22 -49 -32 -49 -17 0 3 15 19 33 34 37 32 50 19 16 -17z
m4956 23 c0 -15 -63 -67 -81 -67 -23 0 6 48 38 62 15 7 28 17 28 22 0 5 3 6 8
2 4 -4 7 -13 7 -19z m-5830 -91 c47 -95 44 -239 -5 -296 -18 -21 -20 -21 -21
-4 0 10 -3 14 -5 7 -3 -7 -12 -9 -20 -6 -11 4 -14 -4 -14 -36 0 -23 -3 -41 -8
-41 -15 0 -63 93 -68 134 -9 66 40 223 88 284 17 21 26 14 53 -42z m6591 -41
c35 -100 40 -236 11 -299 l-17 -39 -31 29 c-33 31 -79 121 -79 155 0 13 -4 18
-12 13 -18 -11 -2 91 22 142 28 57 61 97 71 87 4 -4 20 -44 35 -88z m-5514 4
c9 -5 25 -9 35 -9 25 0 109 -46 106 -59 -2 -6 5 -7 14 -4 11 4 14 3 9 -5 -4
-7 -2 -12 3 -12 6 0 10 -3 9 -8 -3 -6 66 -98 83 -112 11 -9 49 -74 49 -85 0
-5 -5 -4 -12 3 -13 13 -48 16 -48 4 0 -4 5 -13 12 -20 17 -17 -3 -16 -47 2
-18 8 -36 12 -39 9 -2 -3 -15 2 -28 11 -12 9 -31 16 -42 16 -18 0 -18 -2 5
-26 l24 -26 -35 7 c-19 4 -52 16 -72 26 -21 11 -40 19 -43 19 -11 0 -4 -22 19
-59 17 -26 21 -42 14 -49 -14 -14 -89 -2 -117 20 -19 14 -26 16 -32 6 -5 -7
-5 -14 0 -16 14 -5 -1 -52 -17 -52 -8 0 -35 21 -59 46 -55 56 -74 49 -51 -20
11 -32 12 -46 4 -49 -15 -6 -86 51 -86 69 0 8 -4 14 -8 14 -4 0 -14 21 -21 48
-11 39 -14 44 -21 27 -5 -11 -9 -40 -9 -65 l-1 -45 -22 34 -22 35 -9 -40 c-4
-21 -5 -55 -2 -74 5 -32 4 -34 -9 -16 -23 28 -39 123 -32 184 14 115 89 219
186 256 81 30 264 39 312 15z m4533 -39 c76 -29 135 -88 165 -170 12 -32 20
-65 17 -72 -4 -8 -6 -7 -6 5 -1 9 -5 17 -9 17 -4 0 -7 -30 -5 -67 2 -48 0 -62
-6 -48 -9 18 -10 18 -12 -7 -2 -42 -3 -46 -11 -54 -5 -4 -8 2 -8 14 0 11 -5
33 -11 49 l-11 28 -19 -41 c-13 -30 -28 -45 -50 -53 -18 -6 -33 -11 -35 -11
-1 0 0 10 4 22 4 16 2 19 -8 13 -9 -5 -11 -4 -6 4 4 6 12 26 17 44 l9 32 -36
-40 c-28 -30 -35 -35 -29 -17 6 21 5 22 -20 10 -23 -10 -29 -10 -39 4 -9 12
-26 15 -64 14 -29 -2 -55 1 -58 6 -3 4 4 20 15 34 12 15 21 31 21 36 0 12 -60
0 -80 -16 -22 -18 -85 -46 -104 -46 -9 0 -13 6 -10 15 4 9 15 13 28 11 11 -2
15 -1 8 1 -17 6 24 53 45 53 7 0 13 5 13 10 0 6 -2 10 -5 10 -14 0 -95 -43
-95 -51 0 -5 -5 -9 -11 -9 -5 0 -7 5 -3 12 5 8 2 9 -10 5 -14 -5 -17 -3 -12 8
3 8 4 15 1 15 -11 0 -98 -89 -87 -90 6 0 12 4 12 10 0 5 7 7 16 3 11 -4 -1
-15 -40 -37 -57 -32 -82 -51 -149 -115 l-39 -36 17 40 c19 47 60 121 112 202
78 123 190 216 312 260 82 30 184 27 276 -7z m667 -118 c73 -55 122 -122 144
-198 31 -107 16 -206 -29 -197 -25 5 -91 91 -130 169 -38 75 -80 274 -59 274
6 0 39 -21 74 -48z m-5979 -4 c-7 -66 -42 -165 -85 -248 -22 -41 -43 -77 -47
-80 -4 -3 -19 -22 -33 -43 l-25 -38 -19 28 c-28 41 -26 161 3 225 24 53 100
139 153 174 51 33 59 31 53 -18z m-648 -109 c107 -20 164 -60 230 -161 17 -28
17 -28 -5 -28 -15 0 -20 5 -17 14 11 27 -19 45 -98 61 -44 9 -89 18 -100 21
-17 3 -16 2 3 -7 23 -13 31 -34 10 -26 -7 2 -21 0 -31 -5 -15 -7 -31 3 -84 55
-39 38 -63 69 -59 76 9 14 75 14 151 0z m7375 -10 c0 -10 -58 -64 -69 -64 -3
0 -19 -5 -36 -12 -16 -6 -59 -16 -95 -23 -83 -14 -151 -38 -170 -60 -9 -9 -26
-23 -39 -30 -31 -16 -26 0 23 68 45 62 101 101 169 118 65 16 217 18 217 3z
m-1660 -83 c0 -2 -7 -7 -16 -10 -8 -3 -12 -2 -9 4 6 10 25 14 25 6z m357 -58
c-3 -7 -5 -2 -5 12 0 14 2 19 5 13 2 -7 2 -19 0 -25z m-5979 15 c-10 -2 -26
-2 -35 0 -10 3 -2 5 17 5 19 0 27 -2 18 -5z m107 -22 c10 -17 -9 -20 -30 -5
-18 14 -18 14 2 14 12 0 24 -4 28 -9z m6830 -21 c-3 -5 -11 -10 -16 -10 -6 0
-7 5 -4 10 3 6 11 10 16 10 6 0 7 -4 4 -10z m-6043 -140 c47 -33 116 -49 212
-51 46 -1 55 -3 36 -9 -23 -8 -23 -8 8 -9 19 -1 62 13 100 32 57 27 78 32 142
32 77 0 133 -20 151 -55 31 -62 48 -123 39 -146 -7 -17 -7 -23 0 -19 6 3 10 1
10 -4 0 -21 -18 -11 -41 24 -25 36 -46 47 -35 19 3 -9 9 -27 13 -41 l6 -26
-57 6 c-31 3 -56 4 -56 2 0 -1 7 -19 15 -38 8 -20 15 -42 14 -49 0 -9 -2 -10
-5 -1 -3 7 -11 10 -18 7 -13 -5 -63 45 -84 83 -19 32 -23 7 -14 -83 5 -49 8
-90 7 -91 -1 -2 -25 14 -53 33 -33 24 -59 52 -73 80 -29 61 -42 56 -33 -13 l7
-56 -29 20 c-16 12 -39 30 -51 42 -11 11 -40 22 -62 25 -38 4 -41 3 -41 -18 0
-13 11 -40 25 -61 15 -20 24 -39 21 -42 -8 -8 -43 16 -75 52 -35 40 -38 38
-16 -8 15 -30 13 -29 -23 12 -39 43 -72 128 -72 188 0 38 -17 12 -25 -39 -4
-21 -11 -38 -16 -38 -6 0 -8 4 -5 9 3 5 -1 11 -9 14 -16 7 -20 -4 -31 -78 l-7
-50 -8 35 c-12 46 -1 152 22 219 17 49 55 121 65 121 2 0 23 -13 46 -30z
m4850 -43 c70 -39 155 -67 203 -67 47 0 50 11 8 30 l-38 17 50 7 c28 4 69 12
92 18 40 10 44 9 62 -13 23 -29 48 -114 55 -189 l5 -55 -12 60 c-11 50 -14 56
-20 35 -4 -14 -7 -38 -7 -55 0 -16 -10 -50 -22 -75 -20 -43 -21 -44 -28 -20
-5 14 -8 20 -9 13 -1 -13 -80 -73 -95 -73 -6 0 -1 8 11 18 36 27 51 112 21
112 -6 0 -20 7 -30 17 -17 15 -18 15 -18 -15 0 -25 -3 -29 -19 -25 -12 3 -28
-4 -42 -18 -22 -22 -22 -22 -17 -1 6 20 -34 82 -52 82 -4 0 -10 -17 -13 -37
-8 -45 -34 -86 -49 -77 -6 4 -8 3 -5 -3 4 -6 -5 -21 -18 -33 -17 -16 -25 -19
-25 -10 0 11 -3 11 -12 2 -20 -20 -28 -14 -18 14 13 34 13 164 0 164 -5 0 -10
-12 -10 -26 0 -29 -37 -74 -61 -74 -11 0 -16 9 -17 30 0 16 -3 34 -6 39 -7 11
-66 -9 -66 -22 0 -4 -4 -5 -10 -2 -5 3 -10 2 -10 -3 0 -6 -8 -13 -17 -17 -15
-5 -16 -4 -5 6 19 20 14 29 -15 29 -16 0 -23 4 -18 8 6 4 11 12 12 17 1 6 5
19 8 30 4 11 -15 -3 -44 -32 -28 -29 -54 -53 -57 -53 -2 0 -11 6 -19 13 -11
10 -10 16 8 36 12 13 16 21 10 17 -19 -11 -16 14 4 36 16 18 16 18 0 12 -10
-3 -25 -20 -33 -36 -9 -16 -18 -27 -21 -24 -5 5 19 48 41 73 6 6 24 30 41 53
80 111 202 136 327 67z m-632 -107 c0 -5 -18 -23 -40 -41 -22 -18 -37 -35 -35
-40 3 -4 0 -11 -6 -15 -8 -4 -9 -3 -5 4 4 7 3 12 -3 12 -5 0 -13 -4 -16 -10
-5 -8 -167 -124 -203 -144 -11 -7 -11 -4 -2 10 21 32 280 232 303 233 4 1 7
-3 7 -9z m-3500 -85 c0 -5 -5 -3 -10 5 -5 8 -10 20 -10 25 0 6 5 3 10 -5 5 -8
10 -19 10 -25z m3740 -55 c0 -5 -5 -10 -11 -10 -5 0 -7 5 -4 10 3 6 8 10 11
10 2 0 4 -4 4 -10z m-4924 -31 c115 -21 224 -89 239 -150 6 -25 4 -27 -37 -32
-51 -7 -172 8 -230 29 -51 18 -59 18 -52 -1 15 -39 -61 12 -141 94 -41 42 -47
53 -35 61 20 13 183 12 256 -1z m6441 0 l28 -11 -40 -34 c-22 -19 -60 -45 -85
-58 -47 -25 -210 -73 -340 -102 -41 -9 -81 -21 -88 -27 -21 -17 -23 -2 -5 48
31 85 107 138 247 175 80 21 238 26 283 9z m-1755 -52 c-7 -8 -9 -17 -5 -20 3
-4 -1 -7 -9 -7 -9 0 -19 -11 -22 -25 -4 -14 -13 -25 -21 -25 -9 0 -12 -6 -9
-15 5 -11 -1 -15 -19 -15 -41 0 -43 20 -6 54 65 59 124 94 91 53z m-972 -168
c217 -12 489 -35 640 -55 120 -15 748 -120 1075 -179 105 -19 282 -50 395 -70
311 -55 642 -127 808 -177 73 -21 74 -21 68 -52 -7 -34 -162 -621 -222 -839
-21 -75 -41 -134 -44 -130 -4 5 -14 29 -23 56 -15 46 -15 49 10 104 13 32 40
114 59 183 32 115 35 135 32 249 -1 68 -5 116 -8 106 -5 -15 -9 -12 -20 14
-19 47 -63 98 -126 147 -76 59 -150 91 -419 182 -239 81 -684 175 -1167 247
-452 67 -504 73 -628 80 -69 3 -210 14 -315 23 -235 21 -1218 24 -1430 4 -289
-26 -357 -33 -515 -53 -157 -19 -491 -68 -610 -88 -30 -6 -122 -22 -205 -36
-455 -78 -1335 -274 -1335 -297 0 -15 54 -8 180 22 137 34 263 60 267 56 2 -1
-41 -24 -94 -51 -134 -68 -198 -130 -257 -247 -68 -137 -80 -227 -51 -403 8
-49 13 -91 11 -93 -6 -6 -83 236 -125 393 -51 193 -101 391 -101 403 0 19 490
131 800 182 69 12 314 56 545 100 801 150 1230 205 1785 230 222 10 759 4
1020 -11z m-3052 -73 c19 -10 31 -20 29 -23 -8 -7 -107 48 -107 60 0 5 10 3
23 -5 12 -8 37 -23 55 -32z m4893 14 c-13 -11 -31 -20 -40 -20 -9 1 -1 9 19
20 45 24 51 24 21 0z m-2478 -292 c4 -116 7 -291 7 -390 l0 -178 -89 0 c-49 0
-103 -3 -120 -6 l-31 -6 -1 88 c-1 49 -4 118 -8 154 l-6 65 -73 -150 -73 -150
-20 25 c-11 13 -52 77 -91 142 -39 65 -72 118 -74 118 -1 0 0 -71 3 -159 l6
-158 -49 -6 c-27 -3 -81 -9 -120 -13 l-71 -6 -12 198 c-7 110 -19 288 -27 398
-8 109 -13 201 -10 203 10 10 261 29 272 21 7 -5 44 -62 83 -128 39 -65 76
-122 82 -125 5 -4 37 51 74 129 74 155 54 142 231 145 l111 1 6 -212z m618
190 c3 -5 36 -129 72 -276 102 -408 117 -473 117 -495 0 -20 -4 -20 -203 -1
l-57 6 -6 40 c-4 22 -12 41 -18 43 -6 2 -57 6 -113 8 l-102 5 -14 -41 -14 -42
-121 -3 c-107 -2 -122 -1 -122 13 0 32 206 698 231 746 7 13 30 15 176 11 92
-3 171 -9 174 -14z m-1553 -133 l9 -90 -52 -95 c-29 -52 -78 -144 -109 -205
-50 -98 -55 -110 -38 -113 11 -2 72 6 137 17 66 11 119 19 120 18 1 -1 6 -51
12 -112 7 -74 7 -112 0 -117 -6 -3 -35 -9 -66 -13 -31 -4 -161 -24 -290 -46
-129 -22 -235 -38 -236 -37 -2 2 -8 47 -14 101 l-11 98 110 206 c60 114 108
208 106 210 -2 2 -61 -6 -131 -17 -70 -11 -129 -19 -131 -17 -6 6 -34 230 -29
237 2 4 62 15 132 24 385 52 468 61 470 51 2 -5 7 -50 11 -100z m2172 105 c63
-10 201 -52 228 -68 10 -7 8 -19 -7 -58 -11 -27 -30 -77 -42 -112 -15 -43 -25
-59 -33 -53 -6 5 -39 19 -73 30 -73 25 -138 28 -146 7 -7 -18 4 -27 75 -59 96
-43 143 -81 172 -139 63 -126 -1 -289 -136 -348 -97 -42 -259 -27 -395 37 -30
14 -57 33 -61 41 -5 13 22 118 47 184 l10 26 83 -34 c96 -39 156 -44 182 -15
17 18 17 20 -1 36 -10 9 -58 41 -108 70 -122 71 -150 110 -150 208 1 131 77
221 208 247 59 11 74 11 147 0z m630 -110 c129 -24 236 -44 238 -45 3 -3 -46
-224 -53 -235 -3 -5 -20 -4 -38 1 -40 11 -97 12 -97 0 0 -12 -90 -513 -96
-532 -4 -15 -16 -14 -122 9 -64 13 -121 28 -126 33 -6 6 8 112 38 280 26 149
46 273 44 274 -2 2 -37 10 -78 18 l-75 14 1 32 c1 17 7 70 14 117 l12 87 52
-6 c28 -3 157 -24 286 -47z m-3461 -22 c33 -168 64 -455 59 -542 -11 -169
-139 -303 -324 -337 -199 -37 -365 59 -418 242 -17 57 -86 476 -86 520 0 25 3
27 131 52 72 15 135 25 139 22 4 -2 10 -24 13 -47 25 -172 68 -430 76 -451 34
-89 140 -90 177 -1 15 36 13 60 -26 320 -11 76 -23 158 -27 181 l-5 41 53 11
c43 8 183 34 221 40 4 1 11 -23 17 -51z m3941 -73 c168 -35 348 -80 356 -87 2
-3 -2 -29 -10 -59 -8 -30 -20 -82 -27 -117 -10 -51 -15 -62 -28 -57 -23 9
-253 65 -267 65 -14 0 -26 -53 -13 -60 5 -4 52 -16 104 -29 84 -20 95 -25 95
-45 0 -20 -45 -194 -52 -201 -2 -2 -48 7 -102 21 -54 14 -100 24 -101 22 -2
-2 -5 -16 -7 -32 l-3 -30 134 -32 c73 -18 136 -35 138 -38 6 -5 -42 -224 -50
-232 -3 -3 -69 13 -148 34 -79 22 -197 53 -261 68 -65 16 -118 34 -118 40 0 7
36 189 80 405 44 217 80 397 80 401 0 3 8 4 18 2 9 -2 91 -19 182 -39z m584
-165 c197 -56 291 -98 353 -159 60 -58 85 -113 91 -197 7 -103 -15 -168 -79
-238 -28 -31 -57 -56 -64 -56 -8 0 -16 -4 -19 -9 -6 -9 21 -101 73 -258 24
-71 26 -83 12 -82 -9 0 -79 21 -156 48 l-140 47 -35 107 c-34 103 -36 108 -70
117 -41 12 -43 9 -66 -85 -9 -38 -18 -71 -19 -73 -3 -4 -245 64 -251 71 -5 5
3 39 82 372 67 282 93 393 100 423 2 12 6 22 8 22 2 0 83 -23 180 -50z m-5620
-10 c133 -22 252 -112 313 -238 31 -65 37 -88 41 -166 4 -84 -7 -161 -34 -229
-5 -14 26 -50 145 -166 83 -81 151 -152 151 -158 0 -5 -30 -33 -67 -61 -38
-28 -103 -79 -147 -112 -43 -33 -84 -59 -90 -57 -6 2 -64 62 -128 133 -65 71
-124 127 -130 126 -147 -42 -255 -36 -367 19 -236 116 -322 422 -189 672 57
106 193 206 318 233 70 16 110 16 184 4z m3446 -534 c425 -44 804 -100 1185
-177 230 -46 217 -48 -75 -9 -80 11 -212 26 -295 34 -311 31 -450 47 -462 51
-6 2 -47 9 -90 14 -200 27 -371 34 -798 33 -272 -1 -442 2 -430 7 14 7 5 8
-30 5 -27 -2 -144 -6 -260 -8 -115 -3 -291 -12 -390 -21 -188 -17 -253 -28
-125 -21 93 4 65 -7 -55 -23 -142 -18 -523 -53 -542 -49 -27 5 388 85 587 113
462 65 619 74 1175 70 316 -3 496 -8 605 -19z m-4436 -150 c-44 -18 -103 -45
-130 -59 -27 -15 -62 -31 -78 -37 -55 -20 -18 -21 60 -1 107 27 288 61 325 61
51 0 32 -24 -48 -59 -167 -76 -228 -118 -131 -91 20 6 82 19 138 29 l101 19
10 -25 c11 -30 11 -33 0 -33 -14 0 -88 -35 -161 -76 -36 -20 -54 -33 -40 -30
59 14 222 36 231 31 5 -4 9 -16 9 -29 0 -18 -15 -29 -85 -60 -47 -21 -88 -43
-92 -49 -6 -9 133 -3 183 9 16 4 24 -2 34 -27 12 -28 12 -34 -1 -41 -8 -5 -59
-34 -114 -64 -55 -31 -89 -53 -75 -49 90 22 159 35 186 35 27 0 33 -4 37 -27
3 -16 4 -30 2 -33 -2 -4 -60 -30 -130 -59 -69 -30 -124 -56 -122 -58 2 -2 37
4 78 12 41 8 102 19 136 23 57 8 62 7 67 -12 13 -48 10 -51 -144 -106 -82 -30
-148 -55 -146 -57 2 -2 59 6 127 17 83 14 187 23 314 26 l190 4 -125 -25 c-69
-13 -181 -40 -250 -60 l-125 -35 87 5 c49 3 170 7 270 10 201 5 203 6 -52 -39
-257 -46 -537 -128 -774 -230 -60 -26 -111 -45 -112 -43 -5 5 42 136 86 241
18 43 89 189 157 323 69 135 123 246 121 247 -1 1 -66 19 -143 39 -77 20 -207
54 -290 77 -82 22 -199 49 -260 60 -179 34 -170 27 -85 70 212 106 578 203
790 208 l55 2 -81 -34z m7701 0 c211 -48 392 -109 529 -178 l67 -34 -148 -32
c-81 -17 -231 -55 -333 -83 -102 -28 -223 -61 -269 -73 -47 -13 -86 -27 -88
-32 -2 -5 61 -137 140 -294 121 -242 227 -493 214 -507 -4 -3 -48 14 -122 47
-79 36 -202 83 -290 111 -124 39 -442 113 -607 140 -76 13 -136 24 -135 26 2
1 79 -2 173 -7 93 -5 219 -12 279 -15 l110 -5 -95 30 c-78 25 -237 62 -360 83
-14 2 29 5 95 6 113 1 272 -13 429 -39 38 -6 70 -9 72 -7 4 4 -204 83 -264
102 -19 5 -23 13 -20 38 3 27 8 33 32 35 24 3 166 -18 231 -34 49 -12 -21 26
-121 66 -106 43 -114 51 -98 94 8 21 30 20 152 -8 56 -13 102 -22 102 -20 0 6
-161 93 -195 105 -37 14 -41 24 -24 61 10 22 14 23 67 17 31 -4 80 -8 107 -8
l50 -1 -25 20 c-14 10 -58 32 -97 47 -71 27 -84 41 -65 71 7 10 30 10 117 -3
60 -8 116 -15 124 -15 9 0 -35 26 -96 57 -62 30 -113 61 -113 68 0 34 26 34
188 1 89 -18 162 -31 162 -31 0 7 -187 97 -237 115 -56 20 -74 36 -58 52 7 7
231 -28 333 -52 46 -11 93 -20 105 -20 24 0 -127 75 -220 109 -35 13 -63 26
-63 29 0 11 160 -8 265 -32z m-2600 -141 c473 -52 1026 -157 1420 -271 105
-31 456 -143 462 -148 1 -1 0 -19 -4 -40 -6 -37 -6 -38 -42 -31 -20 3 -90 22
-156 40 -657 185 -1146 285 -1637 335 -92 9 -98 11 -140 49 -24 21 -56 50 -73
64 -30 25 -30 25 -5 21 14 -2 93 -11 175 -19z m-2576 -17 c-24 -17 -60 -47
-79 -65 -19 -18 -40 -33 -46 -33 -54 0 -554 -61 -697 -85 l-28 -5 30 38 c17
20 39 47 49 60 20 28 123 46 522 92 321 37 303 37 249 -2z m1761 -9 c69 -5
193 -13 276 -18 119 -7 160 -13 200 -30 128 -56 200 -136 230 -253 23 -89 15
-525 -11 -608 -39 -124 -104 -202 -213 -253 l-67 -32 -960 0 c-888 0 -964 1
-1017 18 -107 33 -198 127 -238 246 -20 60 -23 92 -27 331 -4 249 -3 269 16
323 38 108 105 179 215 228 49 21 118 30 371 48 174 12 1078 12 1225 0z
m-3234 -275 c33 -43 33 -43 -85 -74 -47 -13 -171 -47 -275 -77 -104 -29 -190
-52 -192 -51 -1 2 -4 21 -5 43 l-4 39 110 39 c99 34 382 114 412 116 7 1 24
-15 39 -35z"/>
<path d="M3340 7726 c0 -2 8 -10 18 -17 15 -13 16 -12 3 4 -13 16 -21 21 -21
13z"/>
<path d="M3490 7569 c0 -5 5 -7 10 -4 6 3 10 8 10 11 0 2 -4 4 -10 4 -5 0 -10
-5 -10 -11z"/>
<path d="M3720 7470 c0 -5 5 -10 11 -10 5 0 7 5 4 10 -3 6 -8 10 -11 10 -2 0
-4 -4 -4 -10z"/>
<path d="M3674 7431 c0 -11 4 -17 8 -15 4 3 8 12 8 20 0 8 -4 14 -8 14 -4 0
-8 -9 -8 -19z"/>
<path d="M4018 7363 c7 -3 16 -2 19 1 4 3 -2 6 -13 5 -11 0 -14 -3 -6 -6z"/>
<path d="M3880 7340 c0 -5 5 -10 10 -10 6 0 10 5 10 10 0 6 -4 10 -10 10 -5 0
-10 -4 -10 -10z"/>
<path d="M4078 7268 c5 -5 16 -8 23 -6 8 3 3 7 -10 11 -17 4 -21 3 -13 -5z"/>
<path d="M4052 7254 c10 -10 20 -16 22 -13 3 3 -5 11 -17 18 -21 13 -21 12 -5
-5z"/>
<path d="M5224 6835 c-3 -8 -4 -20 -2 -27 3 -7 7 -1 10 15 6 29 1 36 -8 12z"/>
<path d="M5171 6334 c0 -11 3 -14 6 -6 3 7 2 16 -1 19 -3 4 -6 -2 -5 -13z"/>
<path d="M4969 6314 c-7 -8 -15 -40 -17 -71 -4 -44 -2 -55 9 -51 21 7 39 48
39 90 0 42 -12 55 -31 32z"/>
<path d="M5610 5516 c0 -2 7 -7 16 -10 8 -3 12 -2 9 4 -6 10 -25 14 -25 6z"/>
<path d="M5620 5480 c-9 -6 -10 -10 -3 -10 6 0 15 5 18 10 8 12 4 12 -15 0z"/>
<path d="M8331 5230 c-33 -27 -63 -55 -67 -62 -4 -7 8 1 27 18 19 17 54 45 78
62 25 18 40 32 33 32 -6 0 -38 -22 -71 -50z"/>
<path d="M8194 5098 l-19 -23 23 19 c21 18 27 26 19 26 -2 0 -12 -10 -23 -22z"/>
<path d="M8258 5092 c-16 -9 -28 -21 -28 -27 0 -5 -5 -3 -10 5 -9 13 -10 13
-10 0 0 -34 16 -34 55 2 42 40 39 49 -7 20z"/>
<path d="M4930 4330 c0 -5 5 -10 10 -10 6 0 10 5 10 10 0 6 -4 10 -10 10 -5 0
-10 -4 -10 -10z"/>
<path d="M6053 4441 c-29 -10 -70 -30 -92 -45 -39 -27 -111 -110 -111 -128 0
-5 14 -21 32 -36 66 -57 60 -57 125 8 51 51 65 60 96 60 20 0 39 -5 42 -11 14
-22 -7 -59 -50 -89 -61 -42 -74 -66 -82 -143 l-6 -65 54 14 c29 8 61 14 71 14
14 0 18 8 18 37 0 31 9 46 65 104 71 73 85 100 85 161 0 54 -26 94 -75 118
-51 25 -104 25 -172 1z"/>
<path d="M6036 3956 c-34 -33 -43 -73 -25 -105 31 -55 140 -27 154 39 16 73
-76 120 -129 66z"/>
<path d="M6957 4180 c-15 -16 -23 -30 -18 -30 5 0 19 14 31 30 12 17 20 30 17
30 -2 0 -16 -13 -30 -30z"/>
<path d="M8240 2776 c0 -3 64 -26 143 -51 78 -24 154 -51 169 -59 27 -14 28
-14 34 10 4 14 3 29 -2 33 -12 11 -81 27 -199 46 -55 9 -110 18 -122 21 -13 4
-23 4 -23 0z"/>
<path d="M5509 2778 c-11 -40 -23 -81 -26 -90 -4 -16 3 -18 47 -18 44 0 51 2
47 18 -3 9 -13 50 -22 90 -10 39 -19 72 -21 72 -2 0 -13 -33 -25 -72z"/>
<path d="M8051 2403 c-26 -95 -26 -102 3 -113 15 -5 45 -10 67 -10 35 0 41 4
56 35 13 27 14 40 5 59 -14 30 -47 54 -89 62 -30 6 -32 4 -42 -33z"/>
<path d="M2265 2415 c-22 -8 -41 -15 -42 -15 -2 0 -16 -19 -33 -42 -26 -36
-30 -50 -30 -106 0 -113 57 -192 138 -192 17 0 32 3 32 6 0 3 -18 26 -40 51
-22 25 -40 51 -40 57 1 6 26 26 57 44 l57 33 37 -43 c20 -24 40 -40 43 -37 4
3 12 31 18 61 11 51 10 59 -13 104 -37 75 -109 106 -184 79z"/>
<path d="M5168 2143 c12 -2 32 -2 45 0 12 2 2 4 -23 4 -25 0 -35 -2 -22 -4z"/>
<path d="M5298 2143 c12 -2 32 -2 45 0 12 2 2 4 -23 4 -25 0 -35 -2 -22 -4z"/>
<path d="M4213 1603 c-10 -3 -13 -80 -13 -333 0 -181 3 -335 6 -344 5 -13 24
-16 100 -16 l94 0 0 104 0 103 79 6 c130 10 185 42 227 132 44 94 23 228 -47
292 -52 47 -93 56 -269 59 -91 1 -171 0 -177 -3z m281 -193 c21 -8 26 -16 26
-43 0 -45 -15 -57 -72 -57 l-48 0 0 48 c0 27 3 52 7 55 9 10 58 8 87 -3z"/>
<path d="M4918 1603 l-28 -4 0 -345 0 -344 100 0 100 0 0 110 c0 87 3 110 14
110 7 0 19 -15 27 -32 7 -18 33 -68 57 -110 l45 -78 103 0 c57 0 104 4 104 9
0 5 -30 64 -67 131 -59 108 -65 123 -50 132 112 62 133 253 39 351 -58 62 -92
71 -262 73 -85 1 -167 0 -182 -3z m273 -193 c23 -13 26 -62 3 -84 -9 -10 -33
-16 -60 -16 l-44 0 0 55 0 55 41 0 c22 0 49 -5 60 -10z"/>
<path d="M5767 1596 c-81 -29 -145 -98 -178 -192 -18 -50 -20 -77 -17 -169 4
-119 17 -158 80 -237 71 -90 236 -121 351 -64 94 45 150 135 166 262 30 238
-96 414 -294 413 -38 0 -87 -6 -108 -13z m157 -208 c44 -38 53 -156 21 -241
-14 -34 -83 -50 -124 -27 -63 33 -66 231 -4 278 27 19 79 15 107 -10z"/>
</g>
</svg>
